HIERARCHY
ROOT SpineBase
{
  OFFSET 0.000000 0.000000 0.000000
  CHANNELS 6 Xposition Yposition Zposition Zrotation Xrotation Yrotation
  JOINT SpineMid
  {
    OFFSET 0.000000 33.016446 0.000000
    CHANNELS 3 Zrotation Xrotation Yrotation
    JOINT SpineShoulder
    {
      OFFSET -0.728732 24.397463 -0.992933
      CHANNELS 3 Zrotation Xrotation Yrotation
      JOINT Neck
      {
        OFFSET -0.355988 8.081505 -0.745372
        CHANNELS 3 Zrotation Xrotation Yrotation
        JOINT Head
        {
          OFFSET -2.016917 11.900884 3.874818
          CHANNELS 3 Zrotation Xrotation Yrotation
          End Site
          {
            OFFSET 0 0 0
          }
        }
      }
      JOINT ShoulderLeft
      {
        OFFSET -5.321163 -2.288249 13.915564
        CHANNELS 3 Zrotation Xrotation Yrotation
        JOINT ElbowLeft
        {
          OFFSET -2.283729 -32.658353 7.164815
          CHANNELS 3 Zrotation Xrotation Yrotation
          JOINT WristLeft
          {
            OFFSET -7.329144 -24.852888 -1.523799
            CHANNELS 3 Zrotation Xrotation Yrotation
            JOINT HandLeft
            {
              OFFSET -1.040498 1.475420 -1.244556
              CHANNELS 3 Zrotation Xrotation Yrotation
              JOINT HandTipLeft
              {
                OFFSET -0.760274 -6.235901 -2.241204
                CHANNELS 3 Zrotation Xrotation Yrotation
                End Site
                {
                  OFFSET 0 0 0
                }
              }
              JOINT ThumbLeft
              {
                OFFSET -3.413098 1.154388 -3.216169
                CHANNELS 3 Zrotation Xrotation Yrotation
                End Site
                {
                  OFFSET 0 0 0
                }
              }
            }
          }
        }
      }
      JOINT ShoulderRight
      {
        OFFSET -0.445688 -4.634210 -14.574186
        CHANNELS 3 Zrotation Xrotation Yrotation
        JOINT ElbowRight
        {
          OFFSET -2.908066 -25.703662 -3.281227
          CHANNELS 3 Zrotation Xrotation Yrotation
          JOINT WristRight
          {
            OFFSET -9.425067 -22.053430 6.966658
            CHANNELS 3 Zrotation Xrotation Yrotation
            JOINT HandRight
            {
              OFFSET 1.556734 -7.983537 3.654629
              CHANNELS 3 Zrotation Xrotation Yrotation
              JOINT HandTipRight
              {
                OFFSET -1.991350 -7.482059 2.062041
                CHANNELS 3 Zrotation Xrotation Yrotation
                End Site
                {
                  OFFSET 0 0 0
                }
              }
              JOINT ThumbRight
              {
                OFFSET 3.280578 -0.482296 -2.729989
                CHANNELS 3 Zrotation Xrotation Yrotation
                End Site
                {
                  OFFSET 0 0 0
                }
              }
            }
          }
        }
      }
    }
  }
  JOINT HipLeft
  {
    OFFSET -2.528318 -1.236453 3.452835
    CHANNELS 3 Zrotation Xrotation Yrotation
    JOINT KneeLeft
    {
      OFFSET 3.141165 -31.077200 11.640646
      CHANNELS 3 Zrotation Xrotation Yrotation
      JOINT AnkleLeft
      {
        OFFSET 9.924036 -34.810917 -1.505388
        CHANNELS 3 Zrotation Xrotation Yrotation
        JOINT FootLeft
        {
          OFFSET -4.734106 -8.405762 -5.577918
          CHANNELS 3 Zrotation Xrotation Yrotation
          End Site
          {
            OFFSET 0 0 0
          }
        }
      }
    }
  }
  JOINT HipRight
  {
    OFFSET -0.648545 3.163329 -10.785785
    CHANNELS 3 Zrotation Xrotation Yrotation
    JOINT KneeRight
    {
      OFFSET 4.810262 -31.045751 1.487104
      CHANNELS 3 Zrotation Xrotation Yrotation
      JOINT AnkleRight
      {
        OFFSET 7.863149 -34.635426 1.465766
        CHANNELS 3 Zrotation Xrotation Yrotation
        JOINT FootRight
        {
          OFFSET -3.450941 -7.850482 0.813819
          CHANNELS 3 Zrotation Xrotation Yrotation
          End Site
          {
            OFFSET 0 0 0
          }
        }
      }
    }
  }
}
MOTION
Frames: 10
Frame Time: 0.033333
142.603083 75.530332 327.272348 -0.000000 0.000000 82.479342 -0.000000 0.000000 -82.479342 -0.000000 0.000000 0.000000 -0.000000 0.000000 0.000000 0.000000 0.000000 0.000000 -0.000000 0.000000 0.000000 -0.000000 0.000000 0.000000 -0.000000 0.000000 0.000000 -0.000000 0.000000 0.000000 0.000000 0.000000 0.000000 0.000000 0.000000 0.000000 -0.000000 0.000000 0.000000 -0.000000 0.000000 0.000000 -0.000000 0.000000 0.000000 -0.000000 0.000000 0.000000 0.000000 0.000000 0.000000 0.000000 0.000000 0.000000 -0.000000 0.000000 -82.479342 -0.000000 0.000000 0.000000 -0.000000 0.000000 0.000000 0.000000 0.000000 0.000000 -0.000000 0.000000 -82.479342 -0.000000 0.000000 0.000000 -0.000000 0.000000 0.000000 0.000000 0.000000 0.000000
142.365778 75.282955 327.608165 -0.234164 -0.605208 82.755006 0.629906 -0.155972 -82.755385 -0.000000 0.000000 0.000000 -0.000000 0.000000 0.000000 0.000000 0.000000 0.000000 -0.000000 0.000000 0.000000 -4.452591 5.687209 -1.167152 21.121932 -24.827600 4.575141 -12.339503 21.780410 1.491457 0.000000 0.000000 0.000000 0.000000 0.000000 0.000000 -1.165153 0.190491 0.128953 -0.672253 -4.146860 0.901684 -2.067845 1.983768 -3.145628 5.634419 3.277640 2.254106 0.000000 0.000000 0.000000 0.000000 0.000000 0.000000 0.629906 -0.155972 -82.755385 -0.000000 0.000000 0.000000 -0.543956 -5.540052 3.560918 0.000000 0.000000 0.000000 0.629906 -0.155972 -82.755385 -0.000000 0.000000 0.000000 0.289830 3.330703 -1.448816 0.000000 0.000000 0.000000
142.158759 75.090984 327.913464 -0.440282 -1.138440 82.968750 1.183766 -0.297624 -82.970049 -0.000000 0.000000 0.000000 -0.000000 0.000000 0.000000 0.000000 0.000000 0.000000 -1.507406 -0.168568 -0.320755 -6.819450 11.353034 -1.601829 50.114418 -44.715608 21.042956 -27.975318 40.479148 7.995124 0.000000 0.000000 0.000000 0.000000 0.000000 0.000000 -2.417595 0.150237 0.294087 -0.899681 -7.432232 1.515797 -4.027131 3.889368 -5.595302 10.348997 5.695848 4.078708 0.000000 0.000000 0.000000 0.000000 0.000000 0.000000 2.088830 -0.846054 -82.630911 -0.659948 -0.827241 -0.334869 -0.643591 -10.659183 6.778360 0.000000 0.000000 0.000000 2.352832 -1.164557 -82.743939 -1.007583 -1.050204 -0.220427 0.566656 5.646394 -2.470895 0.000000 0.000000 0.000000
141.982025 74.954421 328.188247 -0.619232 -1.601920 83.113567 1.050329 0.180955 -83.160821 0.039031 -0.035347 -0.040623 0.633114 0.573778 0.080516 0.000000 0.000000 0.000000 -1.660738 0.674652 -0.404431 -9.194489 16.240497 -1.937354 89.028642 -52.653115 50.059489 -47.879214 52.780950 21.049630 0.000000 0.000000 0.000000 0.000000 0.000000 0.000000 -3.120817 0.441513 0.605666 -0.706874 -9.824945 1.902159 -5.779755 5.641086 -7.399079 14.203877 7.099095 5.587019 0.000000 0.000000 0.000000 0.000000 0.000000 0.000000 3.034929 -1.166273 -82.628918 -0.913105 -1.263603 -0.478233 -0.377769 -14.846495 9.384784 0.000000 0.000000 0.000000 3.317229 -1.597952 -82.789579 -1.132874 -0.534900 -0.083471 0.573804 6.067787 -3.306019 0.000000 0.000000 0.000000
141.835577 74.873265 328.432512 -0.771720 -1.997494 83.184526 1.271420 0.230851 -83.246221 0.035708 -0.036469 -0.052611 -0.076252 0.689455 0.394424 0.000000 0.000000 0.000000 -2.294127 1.358803 -0.564615 -10.785480 20.449096 -2.157071 124.111381 -48.288857 76.623731 -70.878707 57.912290 39.522291 0.000000 0.000000 0.000000 0.000000 0.000000 0.000000 -4.355224 0.092450 0.870225 -0.115751 -11.326242 2.104164 -7.247970 7.195645 -8.628465 17.238381 7.352539 6.884622 0.000000 0.000000 0.000000 0.000000 0.000000 0.000000 3.917778 -1.411219 -82.570030 -1.112606 -1.713299 -0.603793 0.101247 -17.716883 11.132334 0.000000 0.000000 0.000000 4.145232 -1.925843 -82.773603 -1.340751 -0.725415 -0.115781 0.656073 6.373792 -3.574667 0.000000 0.000000 0.000000
141.719414 74.847515 328.646259 -0.898294 -2.326629 83.179244 1.429868 0.277752 -83.254383 0.024550 -0.032108 -0.063720 -0.014319 0.891285 0.459029 0.000000 0.000000 0.000000 -2.972904 2.280558 -0.730424 -11.544858 23.951434 -2.391923 147.350679 -38.164297 91.816830 -91.201614 56.919855 57.809796 0.000000 0.000000 0.000000 0.000000 0.000000 0.000000 -5.676127 -0.508954 1.150055 0.854371 -11.954394 2.147387 -8.365039 8.541788 -9.351576 19.467664 6.321125 8.061350 0.000000 0.000000 0.000000 0.000000 0.000000 0.000000 4.737914 -1.576750 -82.453607 -1.257134 -2.174752 -0.710339 0.635103 -19.050960 11.831507 0.000000 0.000000 0.000000 4.839403 -2.144779 -82.695797 -1.463780 -0.924968 -0.148843 0.653355 5.885501 -3.440166 0.000000 0.000000 0.000000
141.659514 74.857412 328.927140 -0.976796 -2.679147 83.114946 1.611077 0.303069 -83.200881 -0.003691 -0.049813 -0.073605 -0.019330 0.893925 0.484080 0.000000 0.000000 0.000000 -3.887388 3.689972 -0.928046 -11.613665 28.389250 -2.931085 171.309527 -21.130102 102.301125 -109.846789 50.643841 78.650027 0.000000 0.000000 0.000000 0.000000 0.000000 0.000000 -7.354559 -1.680455 1.480198 2.969793 -10.789745 1.963662 -10.048061 7.975557 -10.043912 19.776238 3.765746 9.350153 0.000000 0.000000 0.000000 0.000000 0.000000 0.000000 5.833616 -1.565566 -82.282150 -1.318405 -2.905889 -0.814277 1.241478 -19.637348 11.969490 0.000000 0.000000 0.000000 5.604739 -2.162904 -82.558317 -1.434327 -1.227051 -0.190314 0.386478 3.958591 -2.643663 0.000000 0.000000 0.000000
141.620114 74.974737 329.119116 -1.041641 -2.922686 82.977321 1.642248 0.325094 -83.075033 -0.038730 -0.058467 -0.083984 0.132621 1.278718 0.520901 0.000000 0.000000 0.000000 -4.746460 5.224170 -1.086741 -10.443439 31.255693 -3.605241 -177.274845 -10.974976 104.617449 -111.816848 46.424238 86.884889 0.000000 0.000000 0.000000 0.000000 0.000000 0.000000 -9.035966 -3.749490 1.811886 4.907109 -8.188391 1.350483 -10.835429 9.432833 -9.627993 20.364410 -1.739998 10.606222 0.000000 0.000000 0.000000 0.000000 0.000000 0.000000 6.691191 -1.493495 -82.078408 -1.313047 -3.515577 -0.878504 0.986900 -14.411780 8.357848 0.000000 0.000000 0.000000 6.150766 -2.095466 -82.372071 -1.351765 -1.549474 -0.238060 -0.070628 0.993741 -1.332376 0.000000 0.000000 0.000000
141.606884 75.145796 329.191207 -1.069345 -3.020709 82.783504 1.565392 0.408848 -82.891119 -0.067248 -0.032320 -0.093030 0.339716 1.695326 0.565845 0.000000 0.000000 0.000000 -5.507115 6.930098 -1.219276 -8.717626 31.528477 -4.140457 -161.824118 -13.237098 112.225214 -109.283333 44.378500 104.667243 0.000000 0.000000 0.000000 0.000000 0.000000 0.000000 -10.542852 -5.012570 2.045820 6.728662 -6.471710 0.799902 -10.495014 10.536653 -8.976947 20.571297 -8.784827 12.035763 0.000000 0.000000 0.000000 0.000000 0.000000 0.000000 7.155017 -1.375074 -81.868322 -1.254789 -3.885400 -0.895063 1.000666 -11.342464 6.283438 0.000000 0.000000 0.000000 6.362582 -1.949743 -82.167642 -1.207400 -1.808182 -0.277258 -0.197813 -2.392215 0.249171 0.000000 0.000000 0.000000
141.602985 75.340347 329.139056 -1.091519 -2.937648 82.512568 1.373155 0.498867 -82.627248 -0.091401 0.057671 -0.097761 0.653310 1.949487 0.564610 0.000000 0.000000 0.000000 -6.120670 8.458553 -1.326448 -5.455701 29.794246 -4.764453 -161.235952 -12.959165 113.852983 -103.744683 43.124660 106.124407 0.000000 0.000000 0.000000 0.000000 0.000000 0.000000 -11.986272 -5.501257 2.210007 8.666017 -6.039502 0.537669 -8.383865 12.502924 -7.793574 19.639789 -13.305884 12.153920 0.000000 0.000000 0.000000 0.000000 0.000000 0.000000 7.137582 -1.310940 -81.611978 -1.199482 -3.949928 -0.879626 2.020643 -11.418826 5.747405 0.000000 0.000000 0.000000 6.087769 -1.782788 -81.942164 -1.008853 -1.757388 -0.262230 -0.041912 -4.194531 1.153314 0.000000 0.000000 0.000000
